<?xml version="1.0" standalone="no"?>
<!DOCTYPE svg PUBLIC "-//W3C//DTD SVG 20010904//EN"
 "http://www.w3.org/TR/2001/REC-SVG-20010904/DTD/svg10.dtd">
<svg version="1.0" xmlns="http://www.w3.org/2000/svg"
 width="179.000000pt" height="179.000000pt" viewBox="0 0 179.000000 179.000000"
 preserveAspectRatio="xMidYMid meet">
<metadata>
Created by potrace 1.11, written by Peter Selinger 2001-2013
</metadata>
<g transform="translate(0.000000,179.000000) scale(0.100000,-0.100000)"
fill="#000000" stroke="none">
<path d="M889 1768 c-5 -266 -202 -510 -450 -561 -35 -7 -74 -12 -87 -11 l-22
1 2 -301 3 -300 35 -3 c239 -18 453 -212 505 -460 8 -37 15 -83 15 -100 l0
-33 281 0 281 0 -6 82 c-8 99 -10 117 -26 192 -40 196 -164 430 -300 571 l-49
50 45 45 c183 185 309 477 330 763 l6 87 -281 0 -281 0 -1 -22z"/>
</g>
</svg>
